<svg t="1748229361344" class="icon" viewBox="0 0 1116 1024" version="1.1" xmlns="http://www.w3.org/2000/svg" p-id="8346" width="32" height="32"><path d="M558.314116 667.090125a29.507766 29.507766 0 0 1-14.753883-3.929898L14.79447 359.122931a29.507766 29.507766 0 0 1 0-51.155737L543.600471 3.929898a29.507766 29.507766 0 0 1 29.413878 0l528.765763 304.037296a29.507766 29.507766 0 0 1 0 51.155737L573.014349 663.160227a29.507766 29.507766 0 0 1-14.700233 3.929898zM88.751663 333.545062L558.314116 603.567951l469.562453-269.996063L558.314116 63.548999z"  p-id="8347"></path><path d="M558.314116 838.932627a29.507766 29.507766 0 0 1-14.753883-3.929898L14.79447 530.965433a29.507766 29.507766 0 1 1 29.507766-51.155737L558.314116 775.383628l514.038705-295.573932a29.507766 29.507766 0 1 1 29.427291 51.155737L573.014349 835.002729a29.507766 29.507766 0 0 1-14.700233 3.929898z"  p-id="8348"></path><path d="M558.314116 1023.999973a29.507766 29.507766 0 0 1-14.753883-3.929898L14.79447 716.032779a29.507766 29.507766 0 1 1 29.507766-51.155737l514.01188 295.573932L1072.352821 664.86363a29.507766 29.507766 0 0 1 29.427291 51.169149L573.014349 1020.070075a29.507766 29.507766 0 0 1-14.700233 3.929898z"  p-id="8349"></path></svg>