<svg t="1748229457038" class="icon" viewBox="0 0 1024 1024" version="1.1" xmlns="http://www.w3.org/2000/svg" p-id="10535" width="32" height="32"><path d="M958.959681 857.894891l-82.0886-267.288602c-7.797593-25.393343-30.140461-41.929971-56.659441-41.929971L699.680497 548.676317l0 29.698392 69.355601 0c23.274076 0 42.884716 13.992689 49.727565 35.482119l42.401716 196.466604c10.29446 32.31908-14.722306 65.039295-49.733705 65.039295L205.136054 875.362728c-35.010375 0-60.028165-32.720216-49.733705-65.039295l42.401716-196.466604c0.083911-0.26299 0.185218-0.514723 0.272199-0.775666l199.574385 195.799408L908.372539 307.60482 707.253986 110.284779 199.992917 608.16827c0.014326-0.031722 0.025583-0.064468 0.039909-0.095167l-0.927115 0 0-59.397808-2.744507 0c-26.524097 0-48.867988 16.536628-56.664557 41.929971L57.609069 857.894891c-5.730515 18.656919-2.603291 37.053917 8.975419 52.754504s28.208459 24.110117 47.690162 24.110117l788.021497 0c19.48682 0 36.117592-8.40953 47.690162-24.110117C961.562972 894.948809 964.690196 876.55181 958.959681 857.894891zM681.31829 185.076182l125.702933 123.323746-25.535583 25.063839-125.702933-123.323746L681.31829 185.076182zM604.712565 260.268722l75.42176 73.996295-25.535583 25.063839-75.42176-73.996295L604.712565 260.268722zM528.10684 335.460238l75.41562 73.996295-25.535583 25.063839-75.42176-73.996295L528.10684 335.460238zM451.495998 410.652777l75.42176 73.991178-25.535583 25.063839-75.42176-73.991178L451.495998 410.652777zM374.890272 485.844294l75.41562 73.996295-25.535583 25.057699-75.42176-73.991178L374.890272 485.844294zM298.278407 561.036833l125.702933 123.323746-25.535583 25.063839-125.702933-123.323746L298.278407 561.036833z"  p-id="10536"></path></svg>