<svg t="1745981539011" class="icon" viewBox="0 0 1066 1024" version="1.1" xmlns="http://www.w3.org/2000/svg" p-id="5041"
  width="200" height="200">
  <path
    d="M535.893333 47.018667L129.450667 245.888a42.666667 42.666667 0 0 0-23.893334 38.314667v447.872a42.666667 42.666667 0 0 0 23.594667 38.144L533.333333 972.373333a42.666667 42.666667 0 0 0 38.186667 0l404.181333-202.112a42.666667 42.666667 0 0 0 23.594667-38.144V287.445333a42.666667 42.666667 0 0 0-23.466667-38.144l-402.005333-202.069333a42.666667 42.666667 0 0 0-37.930667-0.213333z m18.517334 85.930666l359.552 180.778667v391.978667l-361.514667 180.778666-361.557333-180.778666V310.826667l363.52-177.877334z"
     p-id="5042"></path>
  <path
    d="M167.253333 249.216a42.666667 42.666667 0 1 0-38.016 76.416l388.352 193.109333a83.072 83.072 0 0 0 74.282667-0.170666L975.786667 325.546667a42.666667 42.666667 0 1 0-38.314667-76.245334l-382.890667 192.554667L167.210667 249.173333z"
     p-id="5043"></path>
  <path d="M597.333333 934.186667V489.557333h-85.333333v444.586667z"  p-id="5044"></path>
</svg>