<svg t="1748228662206" class="icon" viewBox="0 0 1097 1024" version="1.1" xmlns="http://www.w3.org/2000/svg"
  p-id="10039" width="32" height="32">
  <path
    d="M775.314 182.857V58.514C775.314 29.257 738.743 0 709.486 0h-358.4c-29.257 0-65.829 29.257-65.829 58.514v124.343H95.086c-51.2 0-95.086 51.2-95.086 95.086v153.6h1097.143v-153.6c0-43.886-51.2-95.086-95.086-95.086H775.314z m-95.085 0H387.657v-58.514c0-21.943 14.629-29.257 29.257-29.257h226.743c21.943 0 29.257 14.628 29.257 29.257l7.315 58.514zM548.57 621.714c65.829 0 65.829-73.143 65.829-124.343H453.486c0 36.572 0 124.343 65.828 124.343h29.257zM680.23 497.371s51.2 182.858-146.286 182.858c-204.8 0-146.286-182.858-146.286-182.858H0v431.543C0 980.114 43.886 1024 95.086 1024h906.971c51.2 0 95.086-36.571 95.086-95.086V497.371H680.229z"
     p-id="10040"></path>
</svg>