<svg t="1748242665156" class="icon" viewBox="0 0 1024 1024" version="1.1"
  xmlns="http://www.w3.org/2000/svg" p-id="21304" width="32" height="32">
  <path
    d="M663.466667 296.064L512 451.84 361.216 296.106667a41.856 41.856 0 0 0-59.690667-0.469334 43.221333 43.221333 0 0 0-0.469333 60.629334L451.84 512l-150.784 155.477333c-16.426667 16.938667-16.213333 43.946667 0.469333 60.629334a41.898667 41.898667 0 0 0 59.733334-0.426667L512 572.16l151.466667 155.562667a41.984 41.984 0 0 0 59.733333 0.384 43.093333 43.093333 0 0 0 0.426667-60.586667L572.16 512l151.466667-155.776a43.136 43.136 0 0 0-0.426667-60.586667 41.941333 41.941333 0 0 0-59.733333 0.426667z"
     p-id="21305"></path>
</svg>