<svg t="1748229160179" class="icon" viewBox="0 0 1024 1024" version="1.1" xmlns="http://www.w3.org/2000/svg" p-id="1831" width="32" height="32"><path d="M672.495448 771.063111C536.288206 861.520472 350.802077 846.716896 230.724063 726.652386 93.758646 589.702371 93.758646 367.662526 230.724063 230.712511 367.68948 93.762496 589.754297 93.762496 726.719714 230.712511 846.795912 350.775203 861.60252 536.236675 771.139544 672.42803 773.082599 674.008086 774.96705 675.706322 776.783972 677.52304L875.05372 775.781733C902.70344 803.428352 903.102472 847.853384 875.518408 875.434352 848.125328 902.824352 803.92872 903.040688 775.854586 874.969704L677.584842 776.711015C675.771042 774.897418 674.074508 773.01162 672.495448 771.063111L672.495448 771.063111ZM677.120149 677.058399C786.692482 567.498387 786.692482 389.86651 677.120149 280.306498 567.547815 170.746486 389.895962 170.746486 280.323628 280.306498 170.751294 389.86651 170.751294 567.498387 280.323628 677.058399 389.895962 786.61841 567.547815 786.61841 677.120149 677.058399ZM448 448 320 448 320 512 448 512 448 640 512 640 512 512 640 512 640 448 512 448 512 320 448 320 448 448Z"  p-id="1832"></path></svg>