<svg t="1734940372252" class="icon" viewBox="0 0 1024 1024" version="1.1" xmlns="http://www.w3.org/2000/svg" p-id="5111"
  width="16" height="16">
  <path
    d="M885.106238 859.198616c4.094444 5.118055 8.188889 10.236111 12.283333 14.842361l87.518747 101.337497c9.724305 10.747916-5.629861 26.102083-15.865971 37.361804-10.236111 10.236111-26.613888 10.236111-36.338194 0-1.023611-1.535417-2.047222-2.047222-2.559027-3.582639l-92.124997-106.455552c-29.684721-33.779166-49.133332-75.235414-56.29861-119.762496-9.2125-55.274998 0-111.573608 26.102083-161.218745 6.141666-11.771527 13.81875-23.031249 22.519444-33.26736 7.165278-9.2125 15.865972-17.401388 23.031249-26.102083v-0.511805c1.023611-1.535417 2.047222-2.559028 3.070833-4.094444 1.535417-2.559028 3.070833-4.60625 4.094444-7.165278 1.023611-2.047222 2.559028-4.60625 3.582639-7.165278 0.511806-1.023611 1.535417-2.559028 1.535417-3.582638 2.559028-6.141666 4.094444-11.771527 5.629861-17.913194 0.511806-3.070833 1.023611-5.629861 1.535416-8.700694l0.511806-3.582639c0.511806-7.165278 0.511806-13.81875 0-20.984027l-0.511806-3.582639c0 5.118055-4.094444 9.724305-9.724305 9.724305-5.629861 0-9.724305-4.60625-9.724305-10.236111 0-4.60625 3.582639-8.700694 8.188888-9.724305 5.118055-0.511806 10.236111 2.559028 11.259722 7.677083l-0.511805-2.047222-1.023611-3.582639c-1.535417-6.653472-3.070833-13.81875-5.629861-20.472221-0.511806-0.511806-0.511806-1.023611-0.511806-1.535417-3.070833-7.677083-7.165278-14.330555-11.771527-20.984027l-0.511806-0.511806c-2.559028-1.535417-2.047222-2.047222-1.535416-1.535416-1.535417-1.535417-2.559028-3.582639-4.094445-5.118056-4.094444-4.094444-7.677083-8.700694-11.259722-12.795138-71.14097-85.471525-77.794442-207.281243-16.889582-300.429852 16.377777-21.495833 34.290971-41.456249 53.739581-59.881248l45.550693-46.062498c10.236111-9.724305 26.613888-10.236111 36.849999-0.511806s25.078471 27.125694 15.865972 36.849999l-4.094444 3.582639-54.763193 55.786803-16.377777 16.377778c-3.070833 3.070833-5.629861 6.141666-8.700695 9.212499-1.535417 2.047222-3.070833 4.094444-5.118055 6.141667l-1.535417 2.559028c-6.653472 9.724305-12.795138 19.960416-17.913193 30.708332l-2.047223 5.118055-1.023611 3.582639 1.023611-3.070833c-1.535417 2.559028-2.559028 5.118055-3.070833 7.677083-2.047222 5.629861-3.582639 10.747916-5.118055 16.377777-2.559028 8.700694-4.094444 17.401388-5.629861 26.102083v0.511805c-0.511806 1.535417-0.511806 3.070833-0.511806 4.60625-1.535417 12.795138-1.535417 25.590277-1.023611 38.385416 0.511806 3.070833 0.511806 6.653472 1.023611 9.724305 1.023611 7.165278 2.047222 14.842361 4.094445 22.007638 2.559028 10.236111 5.629861 20.472222 9.724305 30.196527 5.118055 11.259722 10.747916 22.007638 17.401388 32.243749 1.535417 2.047222 2.559028 4.60625 4.60625 6.653472 0.511806 0.511806 1.023611 1.023611 1.023611 1.535417 1.023611 1.023611 1.535417 2.559028 2.559028 3.582638l5.118055 6.141667c3.582639 4.094444 7.165278 8.188889 10.747917 12.795138 46.062499 54.251387 51.180554 132.045829 13.306944 192.438883-7.677083 10.747916-16.377777 20.984027-25.590277 30.708332-2.047222 2.047222-3.582639 4.60625-5.629861 6.653473l-2.047222 3.070833c1.023611-1.023611 1.535417-1.535417 2.047222-2.559028-4.094444 5.629861-8.188889 11.771527-11.771528 17.401388-3.070833 5.118055-5.629861 10.236111-8.188888 15.865972l-2.559028 5.629861v0.511806-0.511806s0 0.511806-0.511806 1.535417l-1.535416 4.094444c-5.629861 14.842361-9.724305 29.684721-11.771528 45.038887l-0.511805 1.023612c-1.535417 13.306944-2.047222 27.125694-1.535417 40.432637l0.511806 8.188889 0.511805 5.118055v-0.511805c0.511806 3.582639 1.535417 6.653472 1.535417 10.23611l1.535417 8.188889c1.535417 6.141666 3.070833 12.283333 5.118055 17.913194 1.023611 3.070833 2.047222 5.629861 3.070833 8.700694 2.047222 7.165278 5.118055 13.81875 9.2125 19.960416 3.070833 5.629861 6.141666 11.259722 9.724305 16.377777 1.535417 2.559028 3.070833 5.118055 5.118056 7.677084 2.047222 2.047222 2.559028 3.070833 3.582638 3.582638-0.511806 0-0.511806-0.511806-1.023611-1.023611l1.023611 1.023611z m-37.87361-91.613191c1.535417 4.60625 0.511806 2.047222 0 0z m-77.282636-266.650686c-15.865972 17.913194-31.731943 35.314582-47.597915 53.227776L624.597219 663.6889l-113.109025 126.415968c-31.220138 35.314582-62.440276 70.117359-94.172219 104.920136l-39.409026 44.015276c-10.236111 10.236111-26.102083 10.236111-36.338194 0-9.724305-10.236111-9.724305-26.613888 0-37.361804l0.511806-1.023611c15.865972-17.913194 31.731943-35.314582 47.597915-53.227776l98.266664-109.526386c37.87361-42.47986 75.74722-84.447914 113.109024-126.415968l94.172219-104.920135 39.409027-44.015277c10.236111-10.236111 26.613888-10.236111 36.338193 0 9.724305 10.236111 9.724305 26.613888 0 37.361805l-1.023611 1.023611z m-16.889583-452.436097c-15.865972 17.913194-31.731943 35.826388-47.597915 53.227776l-98.778469 110.549996c-37.87361 42.47986-75.74722 84.95972-113.62083 126.927774-31.731943 34.802777-63.463887 70.117359-94.684025 105.431941l-39.409026 44.015277c-10.236111 10.236111-26.613888 10.236111-36.338194 0-9.724305-10.236111-9.724305-26.613888 0-36.849999 0-0.511806 0.511806-0.511806 0.511806-0.511806 15.865972-17.913194 32.243749-35.826388 48.109721-53.739581 32.755555-36.338193 66.022915-73.699998 98.778469-110.038191L583.652776 160.072249l94.684024-105.431941 39.409027-44.015276c10.236111-10.236111 26.613888-10.236111 36.849999 0 9.724305 10.236111 9.724305 26.613888 0 36.849999-1.023611 0-1.535417 1.023611-1.535417 1.023611z m-136.652079-2.559028c-12.283333 13.81875-24.566666 27.637499-36.849999 40.944443L504.834722 170.820166C475.661807 203.063915 446.488891 235.819469 417.315975 268.575024L345.151394 348.928493l-30.196527 33.779166c-10.236111 10.236111-26.613888 10.236111-36.338193 0-9.724305-10.236111-9.724305-26.613888 0-36.849999l0.511806-0.511805c12.283333-13.81875 24.566666-27.125694 36.849998-40.944444L391.213893 220.465303l87.518747-97.754858 72.164581-80.35347c10.236111-11.259722 19.960416-22.519444 30.196527-33.779165 10.236111-10.236111 26.613888-10.236111 36.338193 0 10.236111 10.236111 10.236111 26.613888 0 36.849999l-1.023611 0.511805z m-164.801384 27.125694L344.639589 191.804193c-22.519444 25.078471-44.527082 49.645137-67.046526 74.723609-10.236111 10.236111-26.613888 10.236111-36.338193 0-9.724305-10.236111-9.724305-26.613888 0-37.361805l24.566666-27.125693 106.455552-118.738886L439.323613 9.089615c10.236111-10.236111 26.613888-10.236111 36.849999 0 9.724305 10.236111 9.724305 26.613888 0 36.849999-0.511806 0-24.566666 27.125694-24.566666 27.125694zM270.939591 49.010447L216.688204 104.285446c-5.118055 5.629861-10.747916 10.747916-16.377778 16.889582-2.559028 3.070833-5.629861 6.141666-8.188888 9.2125l-4.094444 4.60625c2.047222-2.559028 1.535417-6.141666-1.023612-8.188889-2.559028-2.047222-6.141666-1.535417-8.188888 1.023611-2.047222 2.559028-1.535417 6.141666 0.511805 8.188889 2.559028 2.047222 6.141666 2.047222 8.188889-0.511806l0.511806-0.511805c0 0.511806 0 0.511806-0.511806 1.023611l-3.070833 3.582639C178.302788 148.812527 172.161122 159.048638 167.043066 169.284749c-1.023611 1.535417-1.535417 3.582639-2.559027 5.629861V174.402804c-1.023611 3.070833-2.047222 5.629861-3.070834 8.700695-2.047222 5.118055-3.582639 10.236111-5.118055 15.865971-2.047222 6.141666-3.070833 12.283333-4.094444 18.936805l-1.023611 7.677083v1.023611l-0.511806 3.582639c-1.023611 12.795138-1.535417 25.078471-0.511805 37.87361l1.023611 10.236111v0.511806-1.023612c0 1.535417 0 2.559028 0.511805 3.582639 1.023611 6.141666 2.047222 12.283333 3.582639 18.425 1.535417 6.141666 3.070833 11.771527 5.118055 17.913194 1.023611 3.070833 1.535417 5.629861 3.070834 8.700694l1.023611 3.070833c5.118055 11.259722 10.747916 21.495833 16.889582 31.731943 1.535417 2.559028 3.582639 5.118055 5.629861 7.677083l2.559028 3.582639c1.535417 2.047222 3.582639 4.094444 5.118056 6.141667l11.771527 13.306944c46.062499 54.251387 51.692359 132.045829 13.818749 191.927077-7.677083 10.747916-15.865972 20.472222-25.078471 30.196527-3.070833 3.582639-5.629861 6.653472-8.700694 10.236111l-0.511806 1.023611c-3.070833 4.60625-6.141666 8.700694-8.700694 13.306944-3.070833 5.629861-6.141666 10.747916-8.700694 16.377777l-3.582639 7.165278v0.511805l-1.535416 3.582639c-4.60625 11.259722-7.677083 23.031249-10.236111 35.314582-0.511806 3.070833-1.023611 6.653472-1.535417 9.724305v1.023611-1.535416l-0.511805 3.582639c-1.023611 12.795138-1.535417 25.590277-1.023611 37.87361 0 3.582639 0 6.653472 0.511805 9.724305l0.511806 3.582639c0 1.023611 0 2.559028 0.511805 3.582638 0.511806 5.118055 1.535417 10.236111 3.070833 15.354167 2.047222 9.2125 5.118055 17.913194 8.188889 26.613888 0.511806 1.535417 1.023611 2.559028 1.535417 4.606249 1.535417 5.118055 4.094444 10.236111 6.653472 14.842361 4.094444 8.188889 9.2125 16.377777 14.84236 24.05486l1.535417 2.047223c0 0.511806 0.511806 0.511806 0.511806 1.023611 4.094444 5.118055 8.700694 10.747916 13.306944 15.354166l87.518747 101.849302c9.724305 10.236111 9.724305 26.613888 0 37.361805-15.865972 10.236111-36.338193 10.236111-52.204165 0l-2.559028-3.582639c-30.708332-35.314582-61.416665-71.14097-92.124997-106.455552-29.684721-34.290971-49.133332-75.74722-56.298609-120.786108-8.700694-54.763193 0.511806-111.061802 26.102082-160.706939 6.653472-11.771527 13.81875-23.031249 22.519444-33.26736 7.165278-9.2125 15.865972-17.401388 23.031249-26.613888l1.023611-1.535417 2.047222-3.070833 4.60625-7.677083c1.535417-2.559028 2.559028-5.118055 4.094445-8.188889l1.535416-3.070833c-3.070833 6.141666-0.511806 1.023611 0-0.511806 2.047222-5.629861 3.582639-11.771527 5.118056-17.401388 0.511806-2.559028 1.023611-5.118055 1.535416-7.165277l0.511806-5.629861c0.511806-6.141666 0.511806-12.795138 0-18.936805l-0.511806-5.629861V481.486128c-1.535417-8.700694-3.582639-16.889583-6.653472-25.078471l-0.511805-1.535417c0 0.511806 0.511806 1.023611 1.023611 1.535417-0.511806-1.023611-1.023611-2.559028-1.535417-3.582639-1.023611-2.559028-2.559028-5.629861-4.094444-8.188889-2.047222-4.094444-4.60625-8.188889-7.165278-11.771527-1.535417-2.047222-3.070833-4.094444-5.118055-6.141667l-10.747917-12.795138A248.604423 248.604423 0 0 1 123.02779 114.521556c16.377777-21.495833 34.290971-41.968054 54.251387-60.393053l45.038888-46.062499c15.865972-9.724305 36.338193-9.724305 52.204165 0 9.724305 10.236111 9.724305 26.613888 0 36.849999 0.511806 0-3.582639 4.094444-3.582639 4.094444zM164.484039 175.426416c-1.023611 4.60625-0.511806 1.535417 0 0z m-13.81875 103.384719c1.023611 4.60625 0.511806 2.047222 0 0z m0.511806 434.011097c-0.511806 2.559028 0 1.535417 0 0z m485.191651-375.665266L535.543055 450.777796l-116.691663 131.534023c-32.243749 36.338193-64.487498 72.676387-96.731247 108.502775-13.306944 15.354166-26.613888 30.196527-39.920832 45.038887-10.236111 10.236111-26.613888 10.236111-36.849999 0-9.724305-10.236111-9.724305-26.613888 0-36.849999l0.511805-1.023611 49.133332-55.274998 100.825692-113.62083 116.691663-131.022218L609.243053 289.559051l39.920832-45.038888c10.236111-10.236111 26.613888-10.236111 36.849998 0 9.724305 10.236111 9.724305 26.613888 0 36.849999v0.511806c-16.377777 18.936805-33.26736 37.361804-49.645137 55.274998z m82.400692 28.66111c9.724305 10.236111 9.724305 26.613888 0 36.849999l-0.511806 1.023611c-16.377777 18.424999-33.26736 36.338193-49.645137 54.763193l-102.872913 113.109024L447.000696 701.56251l-98.266663 107.479163-40.944443 45.038888c-10.236111 10.236111-26.102083 10.236111-36.338194 0-10.236111-10.747916-10.236111-27.637499 0.511806-37.87361 16.377777-18.424999 33.26736-36.338193 50.156943-54.763193 34.290971-37.361804 68.581942-75.235414 102.872913-112.597218 39.409027-43.503471 79.329859-86.495136 118.738885-129.998607l97.754858-107.479164c13.81875-14.842361 27.637499-29.684721 40.944444-44.527082 9.724305-10.747916 26.102083-10.747916 36.338193-1.023611z m-261.020825 575.269427c44.015276-49.645137 88.542358-98.778469 132.557635-148.423607l83.936108-93.660414c10.236111-10.236111 26.613888-10.236111 36.338193 0 9.724305 10.236111 9.724305 26.613888 0 36.849999-10.236111 11.259722-20.472222 23.031249-30.708332 34.290971-44.015276 49.645137-88.542358 98.778469-132.557635 148.423607l-83.936108 93.660414c-4.60625 4.60625-11.259722 7.677083-18.425 7.677083-6.653472 0-13.306944-2.559028-18.424999-7.677083-9.724305-10.236111-9.724305-26.613888 0-36.849999 10.747916-11.259722 20.984027-23.031249 31.220138-34.290971z m132.045829 17.401388c29.684721-33.26736 59.369443-66.53472 89.054164-99.290275 10.236111-10.236111 26.613888-10.236111 36.849999 0 9.724305 10.236111 9.724305 26.613888 0 37.361805l-12.795139 14.330555-89.054164 99.290274c-10.236111 10.236111-26.613888 10.236111-36.338193 0-9.724305-10.236111-9.724305-26.613888 0-36.849998 3.582639-5.629861 8.188889-10.236111 12.283333-14.842361z m156.10069-19.448611c10.236111-10.236111 26.102083-10.236111 36.338193 0 9.724305 10.236111 9.724305 26.613888 0 36.849999l-30.708333 38.385416c-10.236111 10.236111-26.613888 10.236111-36.849998 0-9.724305-10.236111-9.724305-26.613888 0-36.849999l31.220138-38.385416z"
    p-id="5112"></path>
</svg>