<svg t="1745725988028" class="icon" viewBox="0 0 1024 1024" version="1.1" xmlns="http://www.w3.org/2000/svg"
  p-id="12680" width="48" height="48">
  <path
    d="M938.538667 437.077333V178.133333A46.762667 46.762667 0 0 0 891.605333 128h-0.341333c-13.738667 0-26.112 5.888-34.688 15.146667l-272.725333 176.298666-162.133334-161.450666a47.061333 47.061333 0 0 0-66.432 0l-256.170666 160.426666a46.421333 46.421333 0 0 0-13.610667 37.205334v370.56a56.32 56.32 0 0 0 0 7.04v115.712c0 26.026667 21.12 47.061333 47.274667 47.061333h758.485333c26.154667 0 47.274667-21.034667 47.274667-47.061333v-411.861334z m-94.506667 364.8H180.010667V747.946667l214.698666-213.802667 148.693334 101.589333c9.301333 9.258667 21.546667 13.824 33.664 13.653334 12.117333 0.170667 24.32-4.394667 33.664-13.653334l233.301333-123.050666v289.194666zM180.010667 375.04l200.96-125.866667 162.432 161.706667c10.922667 10.922667 25.856 15.36 39.850666 13.226667 10.069333-1.152 19.797333-5.546667 27.477334-13.354667l233.301333-150.869333v152.064l-262.826667 138.666666-159.488-108.970666a46.933333 46.933333 0 0 0-48.554666-11.050667 46.72 46.72 0 0 0-18.005334 11.178667l-175.146666 174.421333V375.04z"
    p-id="12681"></path>
</svg>