<svg t="1748515347242" class="icon" viewBox="0 0 1025 1024" version="1.1" xmlns="http://www.w3.org/2000/svg" p-id="62902" width="32" height="32"><path d="M287.226666 696.099694l164.040376-164.040376a28.758328 28.758328 0 0 1 40.497467 0 29.065904 29.065904 0 0 1 0 40.189892l-164.553001 164.040376h132.770179a28.450753 28.450753 0 0 1 0 56.850242H230.325161v-229.348949a28.091914 28.091914 0 0 1 28.19444-28.450753 28.553278 28.553278 0 0 1 28.707065 28.450753v132.308815z m449.060528-368.680744l-164.040376 164.040376a28.553278 28.553278 0 0 1-40.497467-40.241155l164.553001-164.040375h-132.770178a28.450753 28.450753 0 0 1 0-56.850243h229.656525v229.400212a28.245702 28.245702 0 0 1-13.840907 24.606057 28.707066 28.707066 0 0 1-43.060598-24.606057V327.367688zM149.842852 873.570875a511.754708 511.754708 0 1 1 723.828156 0 510.575668 510.575668 0 0 1-723.828156 0z m39.984842-40.241155a455.058254 455.058254 0 1 0 0-643.192059 455.57088 455.57088 0 0 0 0 643.192059z m0 0" fill="#1296db" p-id="62903"></path></svg>