<svg t="1748567870559" class="icon" viewBox="0 0 1024 1024" version="1.1" xmlns="http://www.w3.org/2000/svg" p-id="16669" width="32" height="32"><path d="M691.2 466.944H332.8c-24.576 0-44.544 19.968-44.544 45.056 0 24.576 19.968 44.544 44.544 44.544h358.4c24.576 0 45.056-19.968 45.056-44.544-0.512-24.576-20.48-45.056-45.056-45.056z m-179.2-402.944c-247.296 0-448 200.704-448 448s200.704 448 448 448 448-200.704 448-448-200.704-448-448-448z m0 851.456c-222.72 0-403.456-180.736-403.456-402.944 0-222.72 180.736-403.456 403.456-403.456s403.456 180.736 403.456 403.456c0 222.208-180.736 402.944-403.456 402.944z" fill="#1296db" p-id="16670"></path></svg>