<svg t="1742977062030" class="icon" viewBox="0 0 1024 1024" version="1.1" xmlns="http://www.w3.org/2000/svg"
  p-id="13706" width="32" height="32">
  <path
    d="M352.256 560.64H194.56c-60.928 0-110.08 49.152-110.08 110.08v157.696c0 60.928 49.152 110.08 110.08 110.08h157.696c60.928 0 110.08-49.152 110.08-110.08V670.72c0-60.928-49.664-110.08-110.08-110.08z m-204.8 110.08c0-26.112 21.504-47.616 47.616-47.616h157.696c26.112 0 47.616 21.504 47.616 47.616v157.696c0 26.112-21.504 47.616-47.616 47.616H194.56c-26.112 0-47.616-21.504-47.616-47.616V670.72z"
    p-id="13707"></path>
  <path
    d="M824.832 88.064H194.56c-60.928 0-110.08 49.152-110.08 110.08v288.768c0 17.408 13.824 31.232 31.232 31.232 17.408 0 31.232-13.824 31.232-31.232V198.144c0-26.112 21.504-47.616 47.616-47.616h629.76c26.112 0 47.616 21.504 47.616 47.616v629.76c0 26.112-21.504 47.616-47.616 47.616h-288.768c-17.408 0-31.232 13.824-31.232 31.232s13.824 31.232 31.232 31.232H824.32c60.928 0 110.08-49.152 110.08-110.08v-629.76c0.512-60.928-49.152-110.08-109.568-110.08z"
    p-id="13708"></path>
  <path
    d="M750.08 228.352l-208.896 208.896V276.992c0-17.408-13.824-31.232-31.232-31.232-17.408 0-31.232 13.824-31.232 31.232v236.032c0 17.408 13.824 31.232 31.232 31.232h236.032c17.408 0 31.232-13.824 31.232-31.232 0-17.408-13.824-31.232-31.232-31.232h-160.256l208.896-208.896c6.144-6.144 9.216-13.824 9.216-22.016 0-8.192-3.072-16.384-9.216-22.016-6.144-6.144-13.824-9.216-22.016-9.216-8.704-0.512-16.896 3.072-22.528 8.704z"
    p-id="13709"></path>
</svg>